<?xml version="1.0" encoding="utf-8"?>
<svg id="master-artboard" viewBox="0 0 256 256" version="1.1" xmlns="http://www.w3.org/2000/svg" x="0px" y="0px" style="enable-background:new 0 0 1400 980;" width="256px" height="256px"><rect id="ee-background" x="0" y="0" width="256" height="256" style="fill: white; fill-opacity: 0; pointer-events: none;"/><g transform="matrix(0.2749713361263275, -0.2749713957309723, 0.2749713957309723, 0.2749713361263275, -10.499663352966309, 145.37267949507435)"><path style="fill:#FFAC00;" d="M145.082,463.043l177.371-177.371l31.553-59.551l63.512-63.512l-9.588-9.588&#10;&#9;C482.388,76.783,512.002,0,512.002,0S435.219,29.614,358.98,104.071l-9.588-9.588l-63.512,63.512l-59.551,31.553L48.959,366.919&#10;&#9;l-25.893-25.893L0.002,364.091L147.911,512l23.063-23.063L145.082,463.043z"/><path style="fill:#FFD68B;" d="M512.002,0c0,0-76.783,29.614-153.022,104.071l-9.588-9.588l-63.512,63.512l-59.551,31.553&#10;&#9;L48.959,366.919l-25.893-25.893L0.002,364.091l73.955,73.955L512.002,0z"/><path d="M 285.8800048828125 157.9949951171875 L 226.3300018310547 189.5489959716797 L 322.4530029296875 285.6719970703125 L 354.0069885253906 226.1219940185547 Z" style="fill:#DB6D00;"/><path d="M 319.9440002441406 192.05799865722656 L 285.8800048828125 157.9949951171875 L 226.3300018310547 189.5489959716797 L 274.3909912109375 237.61099243164062 Z" style="fill:#FFAC00;"/><path style="fill:#DB6D00;" d="M407.931,153.021C482.388,76.783,512.002,0,512.002,0S435.219,29.614,358.98,104.071L407.931,153.021&#10;&#9;z"/><path style="fill:#FFAC00;" d="M512.002,0c0,0-76.783,29.614-153.022,104.071l24.476,24.476L512.002,0z"/><path d="M -19.098 410.209015 H 190.071999 V 442.828014 H -19.098 V 410.209015 Z" transform="matrix(0.7071 0.7071 -0.7071 0.7071 326.6329 64.4757)" style="fill:#DB6D00;"/><path d="M -3.781 373.231995 H 100.803999 V 405.850994 H -3.781 V 373.231995 Z" transform="matrix(0.7071 0.7071 -0.7071 0.7071 289.6558 79.7912)" style="fill:#FFAC00;"/></g></svg>