<?xml version="1.0" encoding="iso-8859-1"?>
<!-- Uploaded to: SVG Repo, www.svgrepo.com, Transformed by: SVG Repo Mixer Tools -->
<svg height="800px" width="800px" version="1.1" id="Layer_1" xmlns="http://www.w3.org/2000/svg" xmlns:xlink="http://www.w3.org/1999/xlink" 
	 viewBox="0 0 512.003 512.003" xml:space="preserve">
<g>
	<path style="fill:#FEE187;" d="M202.387,257.614L47.827,143.665c-4.709-3.473-4.709-10.512,0-13.984L202.387,15.73
		c5.735-4.228,13.841-0.133,13.841,6.992v227.899C216.229,257.747,208.123,261.842,202.387,257.614z"/>
	<path style="fill:#FEE187;" d="M309.614,254.386l154.561,113.949c4.709,3.473,4.709,10.512,0,13.984L309.614,496.269
		c-5.735,4.228-13.841,0.133-13.841-6.992V261.378C295.773,254.253,303.879,250.158,309.614,254.386z"/>
</g>
<g>
	<path style="fill:#FFC61B;" d="M207.509,273.344c12.539,0,22.74-10.194,22.74-22.723V84.871h154.865v103.603h-74.891v-63.705
		c0-7.743-6.277-14.019-14.02-14.019s-14.019,6.277-14.019,14.019v64.971c0,14.763,12.01,26.773,26.773,26.773h77.423
		c14.763,0,26.773-12.01,26.773-26.773V83.605c0-14.763-12.01-26.773-26.773-26.773H230.248V22.723
		C230.248,10.194,220.048,0,207.509,0c-4.848,0-9.495,1.538-13.44,4.446L39.508,118.396c-5.78,4.262-9.23,11.095-9.23,18.276
		c0,7.181,3.45,14.014,9.232,18.276L194.07,268.897C198.013,271.806,202.661,273.344,207.509,273.344z M202.209,33.279v206.786
		L61.968,136.672L202.209,33.279z"/>
	<path style="fill:#FFC61B;" d="M472.494,357.052L317.933,243.103c-3.944-2.909-8.593-4.446-13.44-4.446
		c-12.539,0-22.74,10.194-22.74,22.723v165.751H126.888V323.529h74.891v63.705c0,7.743,6.277,14.019,14.019,14.019
		c7.743,0,14.019-6.276,14.019-14.019v-64.971c0-14.763-12.01-26.773-26.773-26.773h-77.423c-14.763,0-26.773,12.01-26.773,26.773
		v106.135c0,14.763,12.01,26.773,26.773,26.773h156.131v34.109c0,12.529,10.201,22.723,22.74,22.723
		c4.848,0,9.495-1.538,13.44-4.446l154.562-113.95c5.78-4.262,9.23-11.095,9.23-18.276
		C481.726,368.15,478.274,361.314,472.494,357.052z M309.792,478.721V271.936l140.241,103.392L309.792,478.721z"/>
</g>
</svg>