<?xml version="1.0" encoding="utf-8"?>
<svg viewBox="0 0 500 500" xmlns="http://www.w3.org/2000/svg">
  <g transform="matrix(1.435182, 0, 0, 1.435182, -37.893211, -72.553818)" style="">
    <rect x="136.687" y="143.703" style="fill:#7996B1;" width="63.91" height="150.322"/>
    <rect x="136.687" y="129.702" style="fill:#7996B1;" width="63.91" height="25.998"/>
    <rect x="136.687" y="294.025" style="fill:#7996B1;" width="63.91" height="25.946"/>
    <path style="fill:#7996B1;" d="M133.052,269.16c0,27.466,30.243,49.731,67.545,49.731V269.16H133.052z"/>
    <polygon style="fill:#7996B1;" points="200.502,164.353 200.502,88.022 183.483,88.022 183.483,175.497 136.687,206.146 &#10;&#9;&#9;&#9;&#9;136.687,294.025 200.597,294.025 200.597,164.291 &#9;&#9;&#9;"/>
    <rect x="183.483" y="73.562" style="fill:#7996B1;" width="17.113" height="14.459"/>
    <rect x="173.821" y="53.262" style="fill:#7996B1;" width="26.776" height="20.3"/>
    <rect x="85.157" y="137.241" style="fill:#7996B1;" width="51.53" height="194.419"/>
    <rect x="85.157" y="331.66" style="fill:#7996B1;" width="51.53" height="15.076"/>
    <rect x="85.157" y="122.164" style="fill:#7996B1;" width="51.53" height="15.078"/>
    <rect x="200.599" y="143.703" style="fill:#7996B1;" width="63.907" height="150.322"/>
    <rect x="200.599" y="129.702" style="fill:#7996B1;" width="63.907" height="25.998"/>
    <rect x="200.599" y="294.025" style="fill:#7996B1;" width="63.907" height="25.946"/>
    <path style="fill:#7996B1;" d="M268.144,269.16c0,27.466-30.243,49.731-67.545,49.731V269.16H268.144z"/>
    <rect x="200.599" y="143.703" style="opacity:0.26;fill:#7996B1;enable-background:new    ;" width="63.907" height="150.322"/>
    <rect x="200.599" y="129.702" style="opacity:0.26;fill:#7996B1;enable-background:new    ;" width="63.907" height="25.998"/>
    <rect x="200.599" y="294.025" style="opacity:0.26;fill:#7996B1;enable-background:new    ;" width="63.907" height="25.946"/>
    <path style="opacity:0.26;fill:#7996B1;enable-background:new    ;" d="M268.144,269.16c0,27.466-30.243,49.731-67.545,49.731 V269.16H268.144z"/>
    <polygon style="fill:#7996B1;" points="200.693,164.353 200.693,88.022 217.709,88.022 217.709,175.497 264.506,206.146 &#10;&#9;&#9;&#9;&#9;264.506,294.025 200.599,294.025 200.599,164.291 &#9;&#9;&#9;"/>
    <rect x="200.599" y="73.562" style="fill:#7996B1;" width="17.11" height="14.459"/>
    <rect x="200.599" y="53.262" style="fill:#7996B1;" width="26.775" height="20.3"/>
    <rect x="200.599" y="73.562" style="opacity:0.26;fill:#7996B1;enable-background:new    ;" width="17.11" height="14.459"/>
    <rect x="200.599" y="53.262" style="opacity:0.26;fill:#7996B1;enable-background:new    ;" width="26.775" height="20.3"/>
    <polygon style="opacity:0.26;fill:#7996B1;enable-background:new    ;" points="200.693,164.353 200.693,88.022 217.709,88.022 &#10;&#9;&#9;&#9;&#9;217.709,175.497 264.506,206.146 264.506,294.025 200.599,294.025 200.599,164.291 &#9;&#9;&#9;"/>
    <rect x="264.506" y="137.241" style="fill:#7996B1;" width="51.531" height="194.419"/>
    <rect x="264.506" y="331.66" style="fill:#7996B1;" width="51.531" height="15.076"/>
    <rect x="264.506" y="122.164" style="fill:#7996B1;" width="51.531" height="15.078"/>
    <rect x="264.506" y="137.241" style="opacity:0.26;fill:#7996B1;enable-background:new    ;" width="51.531" height="194.419"/>
    <rect x="264.506" y="331.66" style="opacity:0.26;fill:#7996B1;enable-background:new    ;" width="51.531" height="15.076"/>
    <rect x="264.506" y="122.164" style="opacity:0.26;fill:#7996B1;enable-background:new    ;" width="51.531" height="15.078"/>
  </g>
  <rect x="158.278" y="133.686" style="fill: rgb(115, 103, 113);" width="91.722" height="215.739"/>
  <rect x="158.278" y="113.592" style="fill: rgb(93, 80, 91);" width="91.722" height="37.312"/>
  <rect x="158.278" y="349.425" style="fill: rgb(93, 80, 91);" width="91.722" height="37.237"/>
  <path style="fill: rgb(115, 103, 113);" d="M 153.061 313.739 C 153.061 353.158 196.465 385.112 250 385.112 L 250 313.739 L 153.061 313.739 Z"/>
  <rect x="225.439" y="33.021" style="fill: rgb(93, 80, 91);" width="24.56" height="20.751"/>
  <rect x="84.323" y="124.412" style="fill: rgb(115, 103, 113);" width="73.955" height="279.027"/>
  <rect x="84.323" y="403.438" style="fill: rgb(93, 80, 91);" width="73.955" height="21.637"/>
  <rect x="84.323" y="102.773" style="fill: rgb(255, 255, 255);" width="73.955" height="21.64"/>
  <rect x="250.003" y="133.686" style="fill: rgb(115, 103, 113);" width="91.718" height="215.739"/>
  <rect x="250.003" y="113.592" style="fill: rgb(93, 80, 91);" width="91.718" height="37.312"/>
  <rect x="250.003" y="349.425" style="fill: rgb(93, 80, 91);" width="91.718" height="37.237"/>
  <path style="fill: rgb(115, 103, 113);" d="M 346.943 313.739 C 346.943 353.158 303.538 385.112 250.003 385.112 L 250.003 313.739 L 346.943 313.739 Z"/>
  <g transform="matrix(1.435182, 0, 0, 1.435182, -37.893211, -72.553818)" style="">
    <polygon style="fill:#938991;" points="200.502,88.022 183.483,88.022 183.483,175.497 136.687,206.146 136.687,294.025 &#10;&#9;&#9;&#9;&#9;200.597,294.025 200.597,164.291 200.502,164.353 &#9;&#9;&#9;"/>
    <polygon style="fill:#938991;" points="217.709,175.497 217.709,88.022 200.693,88.022 200.693,164.353 200.599,164.291 &#10;&#9;&#9;&#9;&#9;200.599,294.025 264.506,294.025 264.506,206.146 &#9;&#9;&#9;"/>
  </g>
  <rect x="250.003" y="33.021" style="fill: rgb(93, 80, 91);" width="24.556" height="20.751"/>
  <g transform="matrix(1.435182, 0, 0, 1.435182, -37.893211, -72.553818)" style="">
    <rect x="173.821" y="53.262" style="fill:#938991;" width="26.776" height="20.3"/>
    <rect x="200.599" y="53.262" style="fill:#938991;" width="26.775" height="20.3"/>
  </g>
  <rect x="341.721" y="124.412" style="fill: rgb(115, 103, 113);" width="73.956" height="279.027"/>
  <rect x="341.721" y="403.438" style="fill: rgb(93, 80, 91);" width="73.956" height="21.637"/>
  <rect x="341.721" y="102.773" style="fill: rgb(255, 255, 255);" width="73.956" height="21.64"/>
  <polygon style="opacity: 0.28; fill: rgb(83, 69, 81);" points="341.717 102.658 341.717 113.478 274.556 113.478 274.556 53.66 274.556 32.907 288.427 32.907 288.427 3.773 250 3.773 250 32.907 250 53.66 250.135 53.66 250.135 113.478 250 113.478 250 133.572 250 150.79 250 163.12 250 313.626 250 349.312 250 384.999 250 386.55 341.717 386.55 341.717 403.325 341.717 424.962 415.675 424.962 415.675 403.325 415.675 124.298 415.675 102.658"/>
</svg>