<?xml version="1.0" encoding="iso-8859-1"?>
<!-- Uploaded to: SVG Repo, www.svgrepo.com, Transformed by: SVG Repo Mixer Tools -->
<svg height="800px" width="800px" version="1.1" id="Layer_1" xmlns="http://www.w3.org/2000/svg" xmlns:xlink="http://www.w3.org/1999/xlink" 
	 viewBox="0 0 510.613 510.613" xml:space="preserve">
<g transform="translate(1 1)">
	<path style="fill:#FD9808;" d="M278.627,228.867c0-40.96,4.267-80.213,17.067-119.467h-0.853
		c-6.827,6.827-16.213,11.947-26.453,14.507c-3.413,34.133-5.12,68.267-5.12,104.96v51.2c0,28.16,2.56,69.973,5.973,104.96
		c10.24,2.56,18.773,7.68,25.6,14.507h0.853c-7.68-37.547-17.067-87.04-17.067-119.467V228.867z"/>
	<path style="fill:#FFDD09;" d="M220.6,476.333l17.067-39.253l3.413-1.707c11.093-5.12,23.04-0.853,29.867,11.093l2.56,4.267
		l-10.24,50.347c21.333-5.973,37.547-35.84,33.28-69.12c-2.56-23.893-16.213-43.52-33.28-48.64c-27.307-7.68-51.2,21.333-51.2,58.88
		C212.067,460.973,211.213,465.24,220.6,476.333"/>
	<path style="fill:#FFFFFF;" d="M212.067,442.2c0-32.427,17.92-58.88,40.96-59.733C221.453,383.32,195,409.773,195,442.2
		c0,18.773,8.533,34.987,22.187,46.08l3.413-11.093C215.48,466.947,212.067,455,212.067,442.2"/>
	<path style="fill:#FD9808;" d="M313.613,431.96c-4.267-23.893-23.04-43.52-46.933-48.64c-4.267-0.853-7.68-0.853-11.947-0.853
		c2.56,0,5.973,0,8.533,0.853c17.067,4.267,30.72,23.893,33.28,48.64c3.413,31.573-10.24,58.88-29.867,67.413v1.707
		C297.4,494.253,319.587,465.24,313.613,431.96"/>
	<path style="fill:#FFDD09;" d="M271.8,109.4L271.8,109.4c-5.973,12.8-13.653,19.627-22.187,16.213
		c-4.267-2.56-8.533-7.68-11.947-16.213l0,0c5.12,39.253,6.827,78.507,6.827,119.467v51.2c0,32.427-3.413,81.92-6.827,119.467l0,0
		c5.12-12.8,12.8-19.627,21.333-16.213c4.267,2.56,8.533,7.68,11.947,16.213l0,0c-3.413-37.547-6.827-87.04-6.827-119.467v-51.2
		C264.973,187.907,266.68,148.653,271.8,109.4"/>
	<path style="fill:#FFFFFF;" d="M244.493,280.067v-51.2c0-35.84-1.707-69.973-5.12-104.96c-10.24-2.56-18.773-7.68-26.453-14.507
		h-0.853c12.8,39.253,17.067,78.507,17.067,119.467v51.2c0,32.427-9.387,81.92-17.067,119.467h0.853
		c6.827-6.827,16.213-11.947,25.6-14.507C241.933,350.04,244.493,308.227,244.493,280.067"/>
	<path style="fill:#FFDD09;" d="M288.867,24.067L271.8,71.853l-3.413,1.707c-10.24,4.267-22.187,0-29.867-11.947l-1.707-3.413
		L246.2,7.853c-21.333,6.827-37.547,35.84-33.28,69.12c2.56,23.893,16.213,43.52,33.28,48.64c27.307,7.68,51.2-21.333,51.2-58.88
		C297.4,47.96,298.253,35.16,288.867,24.067"/>
	<path style="fill:#FD9808;" d="M292.28,18.947l-3.413,11.093c5.12,10.24,8.533,22.187,8.533,34.987
		c0,32.427-17.92,58.88-40.96,59.733c32.427-0.853,58.027-27.307,58.027-59.733C314.467,47.107,305.933,30.04,292.28,18.947"/>
	<path style="fill:#FFFFFF;" d="M246.2,123.907c-17.067-4.267-30.72-23.893-33.28-48.64c-4.267-30.72,9.387-58.027,29.867-66.56V7
		c-30.72,5.973-52.053,35.84-46.933,69.12c4.267,23.893,23.04,43.52,46.933,48.64c4.267,0.853,7.68,0.853,11.947,0.853
		C252.173,124.76,249.613,124.76,246.2,123.907"/>
	<path d="M246.2,356.867h-23.893c-5.12,0-8.533-3.413-8.533-8.533c0-5.12,3.413-8.533,8.533-8.533H246.2
		c5.12,0,8.533,3.413,8.533,8.533C254.733,353.453,251.32,356.867,246.2,356.867z"/>
	<path d="M254.733,135c-4.267,0-9.387-0.853-13.653-1.707c-27.307-5.12-48.64-27.307-53.76-55.467
		C181.347,41.133,204.387,7,241.08-0.68c2.56-0.853,5.973,0,7.68,2.56s2.56,5.12,1.707,7.68L238.52,56.493l0,0
		c8.533,9.387,21.333,12.8,32.427,8.533l0,0l12.8-46.933c0.853-2.56,2.56-5.12,5.973-5.973c2.56-0.853,5.973,0,7.68,1.707
		c16.213,12.8,25.6,32.427,25.6,52.907s-9.387,39.253-24.747,52.907C286.307,129.88,270.947,135,254.733,135z M229.987,21.507
		c-18.773,10.24-29.013,31.573-25.6,53.76c3.413,20.48,19.627,37.547,40.107,40.96c15.36,3.413,30.72-0.853,42.667-10.24
		c11.947-9.387,18.773-23.893,18.773-39.253c0-11.093-3.413-20.48-9.387-29.013l-10.24,36.693c-0.853,2.56-2.56,5.12-5.12,5.973
		l-4.267,0.853c-17.92,5.973-38.4,0.853-51.2-13.653l-2.56-3.413c-2.56-2.56-2.56-5.12-1.707-7.68L229.987,21.507z M278.627,71.853
		L278.627,71.853L278.627,71.853z"/>
	<path d="M266.68,509.613c-2.56,0-4.267-0.853-5.973-2.56c-1.707-2.56-2.56-5.12-1.707-7.68l11.947-46.08
		c-8.533-9.387-21.333-12.8-33.28-8.533l-12.8,46.933c-0.853,2.56-2.56,5.12-5.973,5.973c-2.56,0.853-5.973,0-7.68-1.707
		c-16.213-12.8-25.6-32.427-25.6-52.907S195,403.8,210.36,390.147c16.213-12.8,36.693-17.92,57.173-14.507
		c27.307,5.12,48.64,27.307,53.76,55.467C327.267,467.8,304.227,501.933,266.68,509.613
		C268.387,509.613,267.533,509.613,266.68,509.613z M247.907,425.133c13.653,0,26.453,5.973,35.84,16.213l3.413,3.413
		c1.707,2.56,2.56,5.12,1.707,7.68l-9.387,34.133c18.773-10.24,29.867-31.573,25.6-53.76c-3.413-20.48-19.627-37.547-40.107-40.96
		c-15.36-2.56-30.72,0.853-42.667,10.24c-11.947,10.24-18.773,24.747-18.773,40.107c0,11.093,3.413,20.48,9.387,29.013l10.24-36.693
		c0.853-2.56,2.56-5.12,5.12-5.973l4.267-1.707C237.667,425.987,242.787,425.133,247.907,425.133z"/>
	<path d="M246.2,322.733h-19.627c-5.12,0-8.533-3.413-8.533-8.533s3.413-8.533,8.533-8.533H246.2c5.12,0,8.533,3.413,8.533,8.533
		S251.32,322.733,246.2,322.733z"/>
	<path d="M297.4,408.067h-0.853c-2.56,0-4.267-0.853-5.973-2.56c-6.827-6.827-16.213-11.947-25.6-13.653
		c-17.067-3.413-34.133,1.707-46.08,13.653c-1.707,1.707-3.413,2.56-5.973,2.56h-0.853c-2.56,0-5.12-0.853-6.827-3.413
		c-0.853-1.707-1.707-4.267-1.707-6.827c11.947-54.613,17.067-93.013,17.067-117.76v-51.2c0-44.373-5.12-81.067-17.067-116.907
		c0-2.56,0-5.12,1.707-7.68c1.707-1.707,4.267-3.413,6.827-3.413h0.853c2.56,0,4.267,0.853,5.973,2.56
		c6.827,6.827,16.213,11.947,25.6,13.653c17.067,3.413,34.133-1.707,46.08-13.653c1.707-1.707,3.413-2.56,5.973-2.56h0.853
		c2.56,0,5.12,1.707,6.827,3.413s1.707,5.12,0.853,7.68c-11.093,35.84-17.067,72.533-17.067,116.907v51.2
		c0,24.747,5.12,63.147,17.067,117.76c0.853,2.56,0,5.12-1.707,6.827C302.52,407.213,299.96,408.067,297.4,408.067z
		 M226.573,129.027c7.68,30.72,11.093,63.147,11.093,99.84v51.2c0,23.04-4.267,55.467-12.8,100.693
		c13.653-6.827,28.16-8.533,43.52-5.973c5.973,0.853,11.093,3.413,16.213,5.973c-8.533-45.227-12.8-77.653-12.8-100.693v-51.2
		c0-36.693,3.413-69.12,11.093-99.84c-12.8,5.973-27.307,7.68-41.813,5.12C235.96,132.44,231.693,130.733,226.573,129.027z"/>
</g>
</svg>