<?xml version="1.0" encoding="utf-8"?>
<svg id="master-artboard" viewBox="0 0 256 256" version="1.1" xmlns="http://www.w3.org/2000/svg" x="0px" y="0px" style="enable-background:new 0 0 1400 980;" width="256px" height="256px"><rect id="ee-background" x="0" y="0" width="256" height="256" style="fill: white; fill-opacity: 0; pointer-events: none;"/><g transform="matrix(0.2731242775917053, -0.2731243669986725, 0.2731243669986725, 0.2731242775917053, -11.839246749877923, 143.0003204345703)"><path d="M 399.82501220703125 245.19400024414062 L 341.0299987792969 303.9880065917969 L 208.01199340820312 170.97000122070312 L 266.8070068359375 112.1760025024414 L 326.927001953125 126.13099670410156 L 385.8689880371094 185.07400512695312 Z" style="fill:#048F46;"/><g>
	<path d="M 135.74200439453125 260.3890075683594 L 109.75299835205078 286.7869873046875 L 142.2550048828125 318.78399658203125 L 193.97799682617188 369.70599365234375 L 193.97799682617188 369.70599365234375 L 226.47900390625 401.7040100097656 L 252.4669952392578 375.3070068359375 L 239.90699768066406 323.0539855957031 L 239.90699768066406 323.0539855957031 L 188.18499755859375 272.1319885253906 L 188.1840057373047 272.1319885253906 Z" style="fill:#424242;"/>
	<path d="M 26.19300079345703 369.9809875488281 L 0 396.17498779296875 L 32.250999450683594 428.4259948730469 L 83.57499694824219 479.75 L 83.57499694824219 479.75 L 115.82499694824219 511.9989929199219 L 142.0189971923828 485.8059997558594 L 129.86700439453125 433.4570007324219 L 129.86700439453125 433.4570007324219 L 78.54299926757812 382.13299560546875 L 78.54299926757812 382.13299560546875 Z" style="fill:#424242;"/>
</g><g>
	<path d="M 104.20500183105469 407.79400634765625 L 78.54299926757812 382.13299560546875 L 78.54299926757812 382.13299560546875 L 26.19300079345703 369.9809875488281 L 0 396.17498779296875 L 32.250999450683594 428.4259948730469 L 57.91299819946289 454.0870056152344 Z" style="fill:#707070;"/>
	<path d="M 214.2270050048828 297.77301025390625 L 188.56500244140625 272.1109924316406 L 188.56500244140625 272.1109924316406 L 136.21499633789062 259.9590148925781 L 110.02200317382812 286.1520080566406 L 142.27200317382812 318.40399169921875 L 167.93499755859375 344.06500244140625 Z" style="fill:#707070;"/>
</g><path d="M 356.39801025390625 155.6020050048828 L 326.927001953125 126.13099670410156 L 266.8070068359375 112.1760025024414 L 208.01300048828125 170.97000122070312 L 274.52099609375 237.47900390625 Z" style="fill:#3DDB86;"/><path style="fill:#C2C2C2;" d="M393.282,60.806L28.956,425.131l57.913,57.913l364.326-364.327&#10;&#9;c46.909-46.909,71.972-97.901,55.98-113.893S440.191,13.896,393.282,60.806z"/><path style="fill:#EE2712;" d="M393.282,60.806l57.913,57.913c46.909-46.909,71.972-97.901,55.98-113.893&#10;&#9;C491.183-11.167,440.191,13.896,393.282,60.806z"/><path style="fill:#EAEAEA;" d="M507.175,4.825c-15.992-15.992-66.984,9.071-113.893,55.98L28.956,425.131l28.956,28.956&#10;&#9;L507.175,4.825z"/><path style="fill:#FF7565;" d="M507.175,4.825L507.175,4.825c-15.992-15.992-66.984,9.071-113.893,55.98l28.956,28.956&#10;&#9;L507.175,4.825z"/></g></svg>