<?xml version="1.0" encoding="iso-8859-1"?>
<!-- Generator: Adobe Illustrator 19.0.0, SVG Export Plug-In . SVG Version: 6.00 Build 0)  -->
<svg version="1.1" id="Capa_1" xmlns="http://www.w3.org/2000/svg" xmlns:xlink="http://www.w3.org/1999/xlink" x="0px" y="0px"
	 viewBox="0 0 400 400" style="enable-background:new 0 0 400 400;" xml:space="preserve">
<g>
	<g>
		<path style="fill:#D66D5D;" d="M400,318.644C400,363.577,364.02,400,319.633,400H80.365C35.98,400,0,363.577,0,318.644V81.356
			C0,36.423,35.98,0,80.365,0h239.268C364.02,0,400,36.423,400,81.356V318.644z"/>
		<path style="fill:#CE6352;" d="M400,318.644v-96.805l-37.95-40.62l-324.098,7.198L205.211,400h114.422
			C364.018,400,400,363.574,400,318.644z"/>
		<g>
			<g>
				<path style="fill:#7996B1;" d="M186.891,218.741h-19.774c4.59-2.064,7.795-6.713,7.795-12.126
					c0-7.329-5.869-13.272-13.111-13.272h-19.774c4.59-2.065,7.796-6.711,7.796-12.124c0-7.332-5.869-13.275-13.111-13.275H51.064
					c-7.24,0-13.111,5.943-13.111,13.275c0,7.327,5.871,13.271,13.111,13.271h19.774c-4.59,2.067-7.796,6.713-7.796,12.125
					c0,7.332,5.871,13.273,13.111,13.273h19.774c-4.592,2.064-7.795,6.713-7.795,12.126c0,7.329,5.869,13.272,13.111,13.272h85.647
					c7.241,0,13.111-5.943,13.111-13.272C200.002,224.685,194.131,218.741,186.891,218.741z"/>
				<path style="fill:#7996B1;" d="M348.938,167.944h-85.647c-7.24,0-13.111,5.943-13.111,13.275c0,5.412,3.206,10.059,7.795,12.124
					h-19.773c-7.24,0-13.111,5.943-13.111,13.272c0,5.413,3.206,10.062,7.798,12.126h-19.776c-7.24,0-13.109,5.943-13.109,13.273
					c0,7.329,5.869,13.272,13.109,13.272h85.649c7.241,0,13.111-5.943,13.111-13.272c0-5.413-3.205-10.062-7.795-12.126h19.773
					c7.24,0,13.109-5.941,13.109-13.273c0-5.412-3.204-10.059-7.796-12.125h19.774c7.24,0,13.111-5.943,13.111-13.271
					C362.05,173.887,356.179,167.944,348.938,167.944z"/>
			</g>
			<path style="fill:#5D505B;" d="M265.136,153.091l-63.376-17.775c-1.149-0.323-2.366-0.323-3.516,0l-63.377,17.775
				c-3.255,0.912-5.299,4.169-4.732,7.54l13.996,83.296c0.304,1.807,1.33,3.41,2.837,4.428l49.382,33.321
				c1.106,0.745,2.379,1.118,3.652,1.118s2.546-0.373,3.652-1.118l49.379-33.321c1.508-1.018,2.534-2.621,2.84-4.428l13.996-83.296
				C270.437,157.261,268.391,154.003,265.136,153.091z"/>
			<path style="fill:#736771;" d="M246.416,165.13l-44.656-12.523c-1.151-0.323-2.364-0.323-3.516,0l-44.658,12.523
				c-3.255,0.914-5.299,4.169-4.732,7.54l10.504,62.519c0.327,1.946,1.491,3.647,3.179,4.643l34.152,20.132
				c1.024,0.604,2.167,0.903,3.312,0.903s2.289-0.3,3.311-0.903l34.154-20.132c1.687-0.995,2.851-2.696,3.178-4.643l10.506-62.519
				C251.716,169.299,249.672,166.043,246.416,165.13z"/>
			<path style="fill:#C3E05E;" d="M219.754,207.211c0,11.043-8.845,19.997-19.752,19.997l0,0c-10.909,0-19.753-8.954-19.753-19.997
				v-9.164c0-11.043,8.845-19.997,19.753-19.997l0,0c10.907,0,19.752,8.953,19.752,19.997V207.211z"/>
		</g>
		<path style="opacity:0.28;fill:#534551;enable-background:new    ;" d="M203.654,281.677l49.379-33.321
			c1.115-0.754,1.962-1.83,2.456-3.068h43.271c7.241,0,13.111-5.943,13.111-13.272c0-5.413-3.205-10.062-7.795-12.126h19.773
			c7.24,0,13.109-5.941,13.109-13.273c0-5.412-3.204-10.059-7.796-12.125h19.774c7.24,0,13.111-5.943,13.111-13.271
			c0-7.332-5.871-13.275-13.111-13.275h-80.297l1.228-7.313c0.567-3.371-1.479-6.628-4.733-7.54l-63.376-17.775
			c-0.575-0.161-1.168-0.242-1.76-0.242v147.721H200C201.275,282.795,202.548,282.422,203.654,281.677z"/>
	</g>
</g>
<g>
</g>
<g>
</g>
<g>
</g>
<g>
</g>
<g>
</g>
<g>
</g>
<g>
</g>
<g>
</g>
<g>
</g>
<g>
</g>
<g>
</g>
<g>
</g>
<g>
</g>
<g>
</g>
<g>
</g>
</svg>
